<?xml version="1.0" standalone="no"?>
<!DOCTYPE svg PUBLIC "-//W3C//DTD SVG 20010904//EN"
 "http://www.w3.org/TR/2001/REC-SVG-20010904/DTD/svg10.dtd">
<svg version="1.0" xmlns="http://www.w3.org/2000/svg"
 width="300.000000pt" height="300.000000pt" viewBox="0 0 300.000000 300.000000"
 preserveAspectRatio="xMidYMid meet">
<metadata>
Created by potrace 1.10, written by Peter Selinger 2001-2011
</metadata>
<g transform="translate(0.000000,300.000000) scale(0.100000,-0.100000)"
fill="#000000" stroke="none">
<path d="M60 2901 c0 -5 11 -8 25 -7 33 1 33 16 0 16 -14 0 -25 -4 -25 -9z"/>
<path d="M640 2900 c0 -5 7 -7 15 -4 8 4 15 8 15 10 0 2 -7 4 -15 4 -8 0 -15
-4 -15 -10z"/>
<path d="M1100 2900 c0 -5 7 -10 16 -10 8 0 12 5 9 10 -3 6 -10 10 -16 10 -5
0 -9 -4 -9 -10z"/>
<path d="M1455 2900 c-4 -6 3 -10 14 -10 25 0 27 6 6 13 -8 4 -17 2 -20 -3z"/>
<path d="M1805 2900 c3 -5 11 -10 16 -10 6 0 7 5 4 10 -3 6 -11 10 -16 10 -6
0 -7 -4 -4 -10z"/>
<path d="M483 2853 c9 -2 23 -2 30 0 6 3 -1 5 -18 5 -16 0 -22 -2 -12 -5z"/>
<path d="M1550 2701 c0 -10 19 -25 25 -20 1 2 -3 10 -11 17 -8 7 -14 8 -14 3z"/>
<path d="M475 2689 c-4 -6 -5 -12 -2 -15 2 -3 7 2 10 11 7 17 1 20 -8 4z"/>
<path d="M1121 2668 c-17 -15 -31 -31 -31 -36 0 -4 20 -18 44 -31 l44 -25 35
30 c20 16 36 31 36 34 1 3 -21 17 -48 31 l-48 25 -32 -28z m89 -35 c0 -3 -7
-2 -16 1 -12 4 -15 2 -10 -9 3 -9 0 -15 -9 -15 -8 0 -15 7 -15 15 0 8 -5 15
-11 15 -5 0 -7 -4 -4 -10 4 -6 -1 -7 -11 -3 -16 6 -16 7 0 19 13 9 25 10 47 2
16 -5 29 -12 29 -15z"/>
<path d="M1500 2692 c0 -4 -20 -21 -44 -36 -50 -32 -82 -63 -73 -72 10 -10
137 90 137 108 0 4 -4 8 -10 8 -5 0 -10 -4 -10 -8z"/>
<path d="M1886 2689 c-4 -9 -3 -33 1 -55 11 -54 5 -104 -13 -104 -9 0 -14 11
-14 35 0 19 -4 35 -10 35 -14 0 -12 -76 3 -88 19 -15 77 -9 92 11 13 18 9 67
-6 67 -5 0 -9 -13 -9 -30 0 -56 -20 -30 -21 28 -2 73 -13 123 -23 101z"/>
<path d="M500 2669 c0 -6 9 -13 20 -16 11 -3 20 -8 20 -12 0 -4 -9 -14 -20
-24 -35 -29 -22 -39 15 -11 23 17 35 35 35 50 0 21 -5 24 -35 24 -19 0 -35 -5
-35 -11z"/>
<path d="M962 2650 c-11 -18 -10 -20 14 -20 21 0 24 -3 15 -14 -6 -8 -25 -19
-41 -26 -17 -7 -30 -19 -30 -27 0 -10 10 -8 41 9 41 23 75 70 64 88 -11 17
-50 11 -63 -10z"/>
<path d="M1513 2648 c-12 -13 -32 -53 -44 -90 -23 -65 -23 -67 -5 -87 22 -25
54 -27 82 -6 27 20 36 18 32 -7 -4 -29 -77 -68 -221 -120 -62 -22 -120 -42
-129 -45 -41 -12 -13 -20 65 -18 96 2 118 7 200 47 74 36 81 45 107 129 17 51
19 74 12 106 -9 38 -56 113 -71 113 -4 0 -17 -10 -28 -22z m42 -38 c0 -13 -6
-25 -14 -28 -8 -3 -11 0 -7 7 4 6 1 11 -8 11 -19 0 -20 6 -3 25 17 20 32 13
32 -15z m33 -59 c16 -53 15 -63 -6 -56 -11 3 -32 -1 -47 -9 -34 -18 -56 -6
-54 28 1 19 2 18 9 -4 5 -15 8 -18 9 -8 2 25 59 35 75 12 11 -15 12 -13 8 14
-2 17 -8 30 -12 29 -4 -1 -8 1 -9 6 -6 42 14 34 27 -12z m-58 9 c8 -5 11 -12
8 -16 -10 -9 -38 3 -38 16 0 12 10 13 30 0z m26 -168 c-12 -20 -88 -64 -113
-67 -15 -1 -41 -8 -57 -14 -16 -7 -37 -10 -45 -8 -11 3 -10 5 5 6 11 0 25 6
32 13 6 6 25 11 43 10 17 0 28 2 25 5 -4 4 17 19 46 33 58 30 72 34 64 22z"/>
<path d="M1530 2510 c0 -5 5 -10 10 -10 6 0 10 5 10 10 0 6 -4 10 -10 10 -5 0
-10 -4 -10 -10z"/>
<path d="M1946 2645 c8 -37 14 -45 14 -19 0 10 -5 26 -10 34 -8 11 -9 7 -4
-15z"/>
<path d="M2363 2595 c-35 -34 -63 -70 -63 -80 0 -11 24 8 70 55 64 66 82 92
63 89 -5 -1 -36 -30 -70 -64z"/>
<path d="M1301 2634 c0 -11 3 -14 6 -6 3 7 2 16 -1 19 -3 4 -6 -2 -5 -13z"/>
<path d="M2140 2639 c0 -5 5 -7 10 -4 6 3 10 8 10 11 0 2 -4 4 -10 4 -5 0 -10
-5 -10 -11z"/>
<path d="M2195 2610 c-16 -36 -17 -49 -5 -151 8 -70 11 -157 7 -234 l-7 -123
29 -31 c26 -28 30 -29 71 -20 40 9 69 31 70 53 0 6 9 0 20 -12 11 -12 32 -25
46 -28 41 -10 114 2 145 25 l29 21 20 -20 c23 -23 35 -24 79 -9 24 9 35 9 44
0 16 -16 62 -14 77 4 17 21 29 19 52 -10 16 -21 28 -25 74 -25 39 0 54 4 54
14 0 9 -8 12 -25 8 -13 -2 -35 -2 -48 2 -26 6 -69 40 -67 52 1 5 -4 10 -11 13
-7 2 -9 -1 -4 -9 6 -10 2 -12 -13 -8 -12 4 -20 3 -17 -2 3 -4 -1 -13 -8 -19
-14 -11 -44 -8 -74 8 -12 6 -25 6 -34 0 -19 -12 -69 -11 -69 1 0 6 12 8 28 4
l27 -6 -29 16 c-33 19 -40 20 -31 6 3 -5 2 -10 -4 -10 -5 0 -13 5 -16 11 -5 6
-12 4 -20 -7 -7 -11 -19 -15 -29 -11 -10 4 -15 3 -11 -3 3 -6 -6 -15 -20 -20
-35 -13 -95 -13 -95 1 0 5 -4 8 -8 5 -4 -2 -19 5 -32 16 -17 14 -19 18 -7 14
10 -3 16 -2 13 2 -7 12 10 35 22 28 6 -3 9 -14 7 -24 -1 -9 0 -12 2 -7 4 12
133 14 133 2 0 -4 15 3 33 17 36 28 53 33 41 14 -5 -8 -2 -9 9 -5 10 4 24 -1
35 -13 12 -13 22 -16 32 -10 12 8 11 10 -5 11 -14 0 -11 3 10 10 20 6 42 6 67
-2 31 -10 41 -9 62 5 32 20 44 20 42 0 0 -10 7 -18 19 -19 11 -1 37 -6 58 -10
25 -5 37 -4 37 4 0 6 -6 11 -12 12 -59 3 -102 35 -106 78 -4 35 -22 33 -22 -3
0 -36 -35 -62 -68 -50 -23 8 -27 15 -24 44 2 33 2 34 -13 16 -8 -11 -15 -25
-15 -32 0 -23 -67 -33 -87 -13 -6 6 -9 18 -6 25 8 22 -3 17 -35 -15 -47 -48
-158 -54 -197 -11 -11 12 -13 20 -6 25 6 3 11 16 11 28 -1 21 -2 20 -21 -6
-30 -40 -74 -60 -116 -52 -19 3 -36 12 -39 19 -3 7 -7 103 -9 212 -5 242 -5
244 -15 244 -4 0 -15 -18 -25 -40z m22 -162 c-2 -18 -4 -6 -4 27 0 33 2 48 4
33 2 -15 2 -42 0 -60z m19 -285 c-4 -8 -2 -11 5 -7 6 4 14 2 18 -4 9 -15 103
4 117 23 10 13 13 13 17 2 7 -18 -5 -36 -23 -35 -33 2 -84 -5 -68 -9 22 -6 31
-32 17 -49 -13 -16 -74 -19 -64 -4 3 5 0 7 -8 4 -20 -7 -32 29 -28 87 0 11 6
17 12 14 6 -4 8 -14 5 -22z m124 -38 c-7 -8 -17 -12 -22 -9 -6 4 -5 10 3 15
22 14 33 10 19 -6z"/>
<path d="M2230 2136 c0 -2 7 -9 15 -16 9 -7 15 -8 15 -2 0 5 -7 12 -15 16 -8
3 -15 4 -15 2z"/>
<path d="M2295 2100 c-19 -8 -19 -9 3 -9 12 -1 22 4 22 9 0 6 -1 10 -2 9 -2 0
-12 -4 -23 -9z"/>
<path d="M795 2605 c-64 -43 -90 -68 -74 -74 6 -2 14 1 18 6 3 5 22 18 41 29
41 22 80 54 80 66 0 13 -12 8 -65 -27z"/>
<path d="M390 2619 c-41 -4 -105 -12 -141 -19 -73 -13 -95 -32 -118 -101 -13
-42 -9 -58 45 -161 l35 -68 -41 0 c-32 0 -42 4 -48 21 -8 20 -8 19 -22 -6 -12
-22 -20 -25 -49 -23 -28 2 -37 8 -42 28 -7 23 -7 23 -8 -7 -1 -17 4 -35 10
-38 15 -10 81 -8 88 2 7 10 26 11 36 1 4 -4 13 -4 21 -1 8 3 14 -1 14 -8 0
-11 3 -11 10 1 6 9 10 10 10 3 0 -15 -28 -43 -43 -43 -7 0 -19 5 -27 11 -12 8
-9 9 12 5 17 -4 28 -2 28 4 0 17 -88 5 -109 -14 -10 -9 -25 -16 -34 -16 -9 0
-17 -4 -17 -10 0 -18 50 -11 67 9 15 18 19 18 37 5 22 -15 64 -18 83 -6 19 12
53 94 53 130 0 18 -17 67 -40 111 l-39 79 42 10 c69 18 216 36 223 29 4 -4 -3
-18 -16 -32 -13 -14 -20 -28 -16 -32 11 -11 83 74 89 104 6 34 -10 40 -93 32z
m70 -28 c-1 -18 -19 -27 -50 -25 -19 2 -64 -2 -100 -8 -147 -23 -136 -23 -120
-3 9 10 16 13 18 6 2 -6 11 -11 20 -11 15 0 15 2 2 10 -8 5 -10 10 -5 11 6 0
19 2 30 5 11 2 37 5 58 6 20 1 37 5 37 9 0 4 25 6 55 6 30 -1 55 -3 55 -6z
m-303 -163 c-3 -8 -6 -5 -6 6 -1 11 2 17 5 13 3 -3 4 -12 1 -19z m42 -41 c5
-18 12 -40 16 -49 4 -10 3 -18 -3 -18 -10 0 -27 47 -23 68 1 6 -3 12 -9 12 -5
0 -10 7 -10 16 0 25 18 6 29 -29z"/>
<path d="M388 2583 c6 -2 18 -2 25 0 6 3 1 5 -13 5 -14 0 -19 -2 -12 -5z"/>
<path d="M2471 2614 c0 -11 3 -14 6 -6 3 7 2 16 -1 19 -3 4 -6 -2 -5 -13z"/>
<path d="M1258 2569 c-17 -40 -17 -42 7 -90 14 -26 25 -52 25 -57 0 -5 -38
-10 -85 -11 -54 -1 -85 2 -85 8 0 6 4 11 10 11 11 0 50 73 50 94 0 18 -48 29
-109 24 -41 -3 -46 -7 -67 -45 -23 -45 -19 -53 28 -53 11 0 18 -5 16 -12 -7
-21 -64 -21 -112 1 -37 16 -47 26 -57 60 -14 49 -25 52 -34 11 -8 -35 -5 -34
-41 -15 -61 32 -92 15 -128 -72 -17 -42 -20 -75 -22 -246 -3 -185 4 -232 21
-155 4 18 10 114 14 213 l6 180 33 3 c43 4 92 -42 92 -87 0 -41 16 -39 30 3
l11 35 34 -15 c47 -19 73 -18 125 9 41 20 45 26 46 60 1 32 -3 38 -24 44 l-25
6 24 14 c13 8 16 12 7 9 -21 -6 -23 5 -6 22 14 14 54 16 62 3 3 -5 15 -7 26
-4 12 3 20 0 20 -6 0 -7 -4 -10 -9 -7 -5 3 -8 -6 -8 -20 0 -33 -19 -52 -35
-36 -8 8 -8 12 -1 12 6 0 13 7 17 15 4 13 2 14 -14 5 -24 -13 -25 -20 -6 -45
12 -17 12 -21 -2 -31 -13 -9 -11 -11 14 -12 99 -2 177 -7 162 -10 -10 -2 -18
-12 -18 -23 0 -17 -7 -19 -59 -19 -41 0 -65 5 -75 16 -9 8 -16 12 -16 8 0 -3
-7 -1 -15 6 -12 10 -15 9 -15 -5 0 -10 8 -24 18 -31 21 -17 141 -18 176 -3 32
15 71 117 62 163 -7 36 -39 116 -46 116 -3 0 -13 -19 -22 -41z m37 -58 c9 -19
11 -32 5 -36 -6 -3 -15 6 -20 20 -19 51 -9 62 15 16z m-489 -41 c10 0 27 -8
38 -17 17 -15 19 -15 8 -1 -9 12 -10 18 -2 23 7 4 14 -2 17 -14 3 -12 10 -21
15 -21 5 0 6 -4 3 -10 -3 -5 2 -10 12 -10 10 0 30 -7 46 -14 26 -14 42 -14 90
-1 22 6 22 6 2 -10 -11 -9 -28 -14 -37 -11 -10 2 -18 1 -18 -4 0 -4 -14 -10
-30 -12 -23 -3 -30 -1 -26 9 3 7 1 13 -4 13 -6 0 -10 -4 -10 -10 0 -5 -7 -7
-16 -3 -13 5 -13 7 -2 14 10 7 10 9 -2 9 -9 0 -25 -7 -37 -15 -19 -13 -21 -13
-26 5 -3 10 -2 21 2 23 3 2 1 3 -5 1 -6 -1 -24 4 -39 12 -16 8 -39 15 -52 16
-29 3 -29 12 -1 32 15 11 26 12 39 6 10 -6 26 -10 35 -10z"/>
<path d="M850 2409 c0 -5 5 -7 10 -4 6 3 10 8 10 11 0 2 -4 4 -10 4 -5 0 -10
-5 -10 -11z"/>
<path d="M1010 2570 c-9 -6 -10 -10 -3 -10 6 0 15 5 18 10 8 12 4 12 -15 0z"/>
<path d="M1356 2557 c3 -10 9 -15 12 -12 3 3 0 11 -7 18 -10 9 -11 8 -5 -6z"/>
<path d="M1410 2566 c0 -2 7 -7 16 -10 8 -3 12 -2 9 4 -6 10 -25 14 -25 6z"/>
<path d="M557 2508 c-11 -31 -17 -100 -21 -250 -3 -115 -1 -208 3 -208 14 0
30 101 37 235 3 72 11 135 16 142 6 7 7 26 2 45 -4 18 -8 41 -9 50 -3 33 -12
28 -28 -14z m21 -63 c-3 -3 -9 2 -12 12 -6 14 -5 15 5 6 7 -7 10 -15 7 -18z"/>
<path d="M1773 2504 c-25 -28 -29 -49 -13 -59 14 -9 12 -25 -2 -25 -19 -1 -64
-37 -56 -45 10 -11 70 30 96 64 24 33 30 91 10 91 -7 0 -23 -12 -35 -26z m23
-29 c-3 -9 -11 -13 -16 -10 -8 5 -7 11 1 21 14 18 24 11 15 -11z"/>
<path d="M2397 2519 c7 -7 15 -10 18 -7 3 3 -2 9 -12 12 -14 6 -15 5 -6 -5z"/>
<path d="M2651 2489 c-22 -38 -22 -43 -8 -54 14 -10 10 -16 -29 -43 -24 -18
-51 -32 -59 -32 -8 0 -15 -4 -15 -10 0 -18 32 -11 74 16 78 49 130 155 81 162
-15 2 -27 -8 -44 -39z m39 -8 c0 -17 -18 -21 -24 -6 -3 9 0 15 9 15 8 0 15 -4
15 -9z"/>
<path d="M2761 2514 c0 -11 3 -14 6 -6 3 7 2 16 -1 19 -3 4 -6 -2 -5 -13z"/>
<path d="M451 2493 c-11 -25 -11 -55 5 -180 5 -41 4 -43 -20 -43 -20 0 -26 5
-26 22 0 33 -41 88 -66 88 -12 0 -28 -10 -36 -22 -21 -33 -40 -110 -36 -144 3
-28 5 -29 66 -34 l62 -5 -25 -28 c-31 -33 -129 -78 -262 -121 -31 -10 -62 -29
-77 -46 -13 -16 -27 -26 -30 -23 -3 4 -6 -4 -6 -17 0 -13 3 -20 6 -17 4 4 19
-2 34 -13 37 -26 40 -26 75 11 28 30 28 32 10 45 -10 8 -25 14 -32 14 -7 0
-13 5 -13 10 0 6 33 10 78 10 66 0 86 5 137 30 79 41 91 54 106 109 9 36 18
50 38 58 28 10 50 66 52 133 2 55 -13 190 -21 190 -4 0 -12 -12 -19 -27z m-86
-182 c-8 -28 -28 -16 -20 12 6 21 6 21 -9 3 -9 -11 -18 -17 -21 -15 -2 3 3 15
13 27 14 18 19 19 31 8 8 -8 10 -22 6 -35z m20 -22 c-5 -15 -4 -19 4 -15 10 6
16 -13 12 -36 0 -5 4 -8 9 -8 6 0 10 5 10 10 0 6 7 10 15 10 21 0 8 -26 -21
-39 -53 -24 -154 -6 -113 20 10 6 11 9 2 9 -7 0 -13 5 -13 11 0 6 6 9 13 6 6
-3 20 -8 30 -12 9 -4 17 -3 17 3 0 5 -11 13 -25 16 -30 8 -33 26 -5 26 12 0
25 -10 32 -25 16 -36 28 -31 21 10 -4 24 -2 35 6 35 8 0 10 -8 6 -21z m-35
-199 c-14 -11 -45 -27 -70 -37 -25 -9 -48 -21 -51 -26 -4 -5 -9 -5 -13 1 -3 5
9 15 27 22 17 7 52 23 77 36 55 29 63 30 30 4z m-264 -130 c19 0 18 -26 -1
-34 -18 -6 -45 2 -45 15 0 5 12 7 28 4 25 -5 26 -5 4 5 -15 6 -20 14 -16 22 6
9 9 9 12 0 2 -7 10 -12 18 -12z"/>
<path d="M318 2213 c6 -2 18 -2 25 0 6 3 1 5 -13 5 -14 0 -19 -2 -12 -5z"/>
<path d="M2095 2500 c-11 -17 -25 -176 -20 -226 2 -27 5 -100 7 -162 1 -63 6
-116 10 -118 18 -12 30 121 27 308 -4 186 -8 224 -24 198z"/>
<path d="M2337 2468 c-27 -38 -27 -41 -10 -55 10 -8 36 -23 57 -33 l40 -19 29
40 c16 22 28 41 26 42 -2 2 -20 10 -39 20 -19 9 -44 23 -55 31 -18 13 -22 11
-48 -26z m93 -36 c-5 -2 -18 2 -29 7 -13 7 -22 8 -26 1 -9 -15 4 -30 23 -29
15 1 15 2 0 6 -10 2 -18 8 -18 13 0 4 14 3 31 -3 20 -8 25 -13 15 -15 -9 -2
-14 -7 -11 -11 2 -5 -7 -6 -22 -3 -14 3 -28 13 -30 23 -3 10 -10 16 -17 13 -6
-3 -3 1 7 9 9 8 17 19 17 26 0 6 15 1 35 -11 19 -13 30 -24 25 -26z"/>
<path d="M2131 2484 c0 -11 3 -14 6 -6 3 7 2 16 -1 19 -3 4 -6 -2 -5 -13z"/>
<path d="M303 2452 c-38 -33 -55 -62 -37 -62 10 0 65 49 86 76 30 38 0 29 -49
-14z"/>
<path d="M1210 2466 c0 -8 4 -17 9 -20 5 -4 7 3 4 14 -6 23 -13 26 -13 6z"/>
<path d="M1857 2442 c-16 -33 -18 -59 -15 -186 3 -146 3 -147 -20 -153 -31 -7
-80 3 -98 22 -13 12 -15 36 -12 120 2 60 -1 105 -6 105 -22 0 -46 -37 -82
-123 -42 -102 -57 -120 -94 -111 -45 10 -60 32 -60 91 0 79 -17 64 -25 -22 -8
-86 10 -139 57 -164 42 -24 70 -2 99 77 31 84 62 145 76 149 9 3 11 -25 10
-100 -2 -91 1 -108 17 -126 25 -27 100 -29 129 -4 18 17 19 17 28 0 7 -12 23
-17 59 -17 58 0 80 22 107 106 16 52 16 57 -4 137 l-21 82 -16 -37 c-20 -47
-20 -75 0 -134 8 -25 14 -47 12 -49 -14 -13 -66 -12 -83 1 -18 14 -20 29 -23
194 -2 99 -7 180 -10 180 -4 0 -15 -17 -25 -38z m10 -154 c-2 -24 -4 -5 -4 42
0 47 2 66 4 43 2 -24 2 -62 0 -85z m-177 -1 c0 -13 -6 -24 -13 -24 -11 0 -11
6 -3 24 14 29 16 29 16 0z m319 -91 c7 -26 7 -36 0 -29 -5 5 -12 27 -14 49 -6
44 -1 37 14 -20z m-111 -108 c6 -6 22 -11 36 -11 18 -2 25 -6 21 -16 -4 -10 1
-9 15 4 11 10 20 13 20 7 0 -17 -50 -52 -74 -52 -11 0 -28 5 -36 10 -13 9 -13
11 0 21 13 9 13 10 0 6 -18 -5 -44 19 -35 33 4 6 10 8 15 5 5 -3 11 -1 15 5 3
5 3 10 -2 10 -4 0 -9 19 -10 43 l-1 42 13 -49 c8 -27 18 -53 23 -58z m-419 22
c1 13 2 13 11 0 5 -9 25 -15 49 -15 23 0 41 -3 41 -7 0 -5 -10 -8 -22 -8 -19
0 -20 -2 -8 -10 13 -8 12 -11 -5 -24 -11 -8 -21 -10 -23 -5 -2 5 -11 9 -20 9
-12 1 -11 4 7 14 15 8 20 16 12 20 -6 4 -11 1 -12 -6 0 -10 -2 -10 -6 1 -4 11
-7 11 -14 0 -10 -17 -16 -11 -23 26 -5 24 -4 26 3 10 7 -14 10 -15 10 -5z
m245 -41 c-4 -20 -3 -21 5 -8 12 19 88 24 108 7 11 -9 9 -14 -8 -26 -18 -12
-23 -13 -30 -1 -7 11 -9 10 -9 -4 0 -13 -6 -16 -27 -13 -35 7 -51 24 -60 66
-6 32 -5 34 10 19 9 -10 14 -26 11 -40z"/>
<path d="M1904 2045 c-16 -12 -17 -14 -3 -15 9 0 19 7 23 15 7 19 5 19 -20 0z"/>
<path d="M645 2450 c3 -5 8 -10 11 -10 2 0 4 5 4 10 0 6 -5 10 -11 10 -5 0 -7
-4 -4 -10z"/>
<path d="M2805 2430 c-20 -22 -13 -39 8 -21 8 6 22 8 31 5 15 -6 15 -8 -3 -25
-11 -11 -24 -19 -28 -19 -4 0 -19 -9 -33 -20 -36 -28 -5 -25 46 5 44 26 64 51
64 79 0 24 -62 21 -85 -4z"/>
<path d="M32 2428 c-20 -20 -14 -37 11 -31 20 4 20 2 -7 -20 -16 -14 -24 -27
-18 -31 15 -9 74 51 70 71 -4 22 -38 29 -56 11z"/>
<path d="M2036 2425 c-3 -9 -6 -22 -5 -28 0 -7 5 -1 10 12 5 13 8 26 5 28 -2
2 -6 -3 -10 -12z"/>
<path d="M2968 2406 c-19 -14 -24 -36 -10 -36 10 0 42 33 42 43 0 11 -13 8
-32 -7z"/>
<path d="M1120 2381 c0 -19 30 -31 73 -30 26 1 44 6 41 11 -3 5 -19 6 -35 3
-20 -5 -38 -1 -54 9 -14 9 -25 12 -25 7z"/>
<path d="M1766 2381 c-3 -5 1 -11 9 -14 9 -4 12 -1 8 9 -6 16 -10 17 -17 5z"/>
<path d="M2310 2381 c0 -5 7 -12 16 -15 14 -5 15 -4 4 9 -14 17 -20 19 -20 6z"/>
<path d="M2736 2353 c-6 -14 -5 -15 5 -6 7 7 10 15 7 18 -3 3 -9 -2 -12 -12z"/>
<path d="M712 2335 c0 -16 2 -22 5 -12 2 9 2 23 0 30 -3 6 -5 -1 -5 -18z"/>
<path d="M2032 2340 c0 -14 2 -19 5 -12 2 6 2 18 0 25 -3 6 -5 1 -5 -13z"/>
<path d="M35 2319 c-4 -6 -5 -12 -2 -15 2 -3 7 2 10 11 7 17 1 20 -8 4z"/>
<path d="M733 2290 c0 -25 2 -35 4 -22 2 12 2 32 0 45 -2 12 -4 2 -4 -23z"/>
<path d="M2961 2265 c-36 -60 -36 -80 0 -46 13 12 25 21 29 21 3 0 6 18 7 40
1 22 1 40 0 40 -2 0 -18 -25 -36 -55z"/>
<path d="M1801 2284 c0 -11 3 -14 6 -6 3 7 2 16 -1 19 -3 4 -6 -2 -5 -13z"/>
<path d="M1150 2272 c0 -4 -42 -34 -94 -65 -84 -52 -123 -87 -95 -87 21 0 209
130 209 145 0 8 -4 15 -10 15 -5 0 -10 -4 -10 -8z"/>
<path d="M2315 2240 c3 -5 8 -10 11 -10 2 0 4 5 4 10 0 6 -5 10 -11 10 -5 0
-7 -4 -4 -10z"/>
<path d="M15 2210 c-3 -5 -2 -10 4 -10 5 0 13 5 16 10 3 6 2 10 -4 10 -5 0
-13 -4 -16 -10z"/>
<path d="M108 2123 c-32 -20 -58 -42 -58 -49 0 -8 2 -14 5 -14 7 0 125 83 131
92 11 17 -23 4 -78 -29z"/>
<path d="M1545 2150 c-3 -5 -1 -10 4 -10 6 0 11 5 11 10 0 6 -2 10 -4 10 -3 0
-8 -4 -11 -10z"/>
<path d="M215 2140 c3 -5 8 -10 11 -10 2 0 4 5 4 10 0 6 -5 10 -11 10 -5 0 -7
-4 -4 -10z"/>
<path d="M2770 2129 c0 -5 5 -7 10 -4 6 3 10 8 10 11 0 2 -4 4 -10 4 -5 0 -10
-5 -10 -11z"/>
<path d="M1392 2090 c0 -14 2 -19 5 -12 2 6 2 18 0 25 -3 6 -5 1 -5 -13z"/>
<path d="M2597 2059 c7 -7 15 -10 18 -7 3 3 -2 9 -12 12 -14 6 -15 5 -6 -5z"/>
<path d="M2493 1994 c-29 -29 -30 -33 -17 -53 19 -26 67 -52 80 -43 5 4 22 22
38 39 27 30 28 33 10 39 -10 4 -32 17 -49 29 l-30 22 -32 -33z m80 -34 c6 0 2
-10 -10 -22 -21 -20 -23 -21 -48 -4 -21 14 -24 20 -15 32 7 7 16 11 21 8 5 -3
6 3 2 13 -5 14 -2 14 16 -4 12 -13 27 -23 34 -23z"/>
<path d="M2510 1954 c0 -2 9 -8 20 -14 11 -6 20 -7 20 -2 0 6 -9 12 -20 15
-11 3 -20 3 -20 1z"/>
<path d="M1966 1944 c-9 -24 -2 -26 12 -4 7 11 8 20 3 20 -5 0 -12 -7 -15 -16z"/>
<path d="M2320 1945 c-11 -13 -10 -14 4 -9 9 3 16 10 16 15 0 13 -6 11 -20 -6z"/>
<path d="M2065 1939 c-4 -6 -5 -12 -2 -15 2 -3 7 2 10 11 7 17 1 20 -8 4z"/>
<path d="M149 1923 c-13 -16 -12 -17 4 -4 9 7 17 15 17 17 0 8 -8 3 -21 -13z"/>
<path d="M1986 1905 c-3 -9 1 -18 10 -22 19 -7 39 11 30 26 -10 16 -33 13 -40
-4z"/>
<path d="M2445 1910 c-3 -5 -1 -10 4 -10 6 0 11 5 11 10 0 6 -2 10 -4 10 -3 0
-8 -4 -11 -10z"/>
<path d="M1445 1872 c-38 -26 -40 -31 -43 -85 -2 -42 -7 -57 -17 -57 -8 0 -24
-9 -35 -20 -12 -12 -25 -18 -30 -15 -6 4 -10 38 -10 76 0 44 -4 68 -10 64 -15
-9 -12 -138 3 -159 15 -20 43 -13 58 15 5 11 18 19 28 19 21 0 31 26 31 86 0
37 4 42 40 63 22 12 40 26 40 32 0 14 -12 10 -55 -19z"/>
<path d="M2325 1877 c-46 -33 -54 -48 -55 -99 0 -27 -4 -48 -10 -48 -5 0 -10
5 -10 10 0 18 -19 10 -25 -11 -5 -14 -1 -25 12 -34 17 -13 16 -15 -14 -27 -18
-7 -33 -16 -33 -21 0 -14 53 -3 60 13 4 8 15 29 24 47 9 17 16 51 16 76 0 40
3 47 40 72 22 15 40 32 40 36 0 14 -13 10 -45 -14z"/>
<path d="M2066 1873 c-6 -14 -5 -15 5 -6 7 7 10 15 7 18 -3 3 -9 -2 -12 -12z"/>
<path d="M2580 1846 c0 -20 5 -36 10 -36 6 0 10 13 10 29 0 17 -4 33 -10 36
-6 4 -10 -8 -10 -29z"/>
<path d="M980 1825 c-24 -25 -41 -47 -38 -51 9 -9 92 70 87 83 -2 6 -24 -8
-49 -32z"/>
<path d="M1960 1860 c0 -6 7 -10 15 -10 8 0 15 2 15 4 0 2 -7 6 -15 10 -8 3
-15 1 -15 -4z"/>
<path d="M1616 1843 c-10 -10 -7 -133 3 -133 5 0 11 30 13 66 3 63 -1 81 -16
67z"/>
<path d="M2016 1828 c-9 -34 -8 -38 9 -38 11 0 12 -6 6 -22 -9 -27 -4 -49 17
-64 12 -9 10 -15 -10 -39 -20 -23 -29 -27 -53 -21 l-28 7 6 66 c5 50 4 64 -5
55 -16 -16 -22 -115 -9 -141 28 -51 121 0 123 69 1 17 -5 36 -13 41 -9 5 -14
26 -14 55 0 50 -18 70 -29 32z"/>
<path d="M2170 1805 c-24 -25 -39 -45 -32 -45 15 0 92 69 92 82 0 17 -17 7
-60 -37z"/>
<path d="M2399 1833 c-13 -16 -12 -17 4 -4 9 7 17 15 17 17 0 8 -8 3 -21 -13z"/>
<path d="M580 1831 c0 -5 5 -13 10 -16 6 -3 10 -2 10 4 0 5 -4 13 -10 16 -5 3
-10 2 -10 -4z"/>
<path d="M917 1833 c-9 -8 -9 -120 -1 -150 8 -29 40 -30 54 -3 15 28 9 76 -9
72 -26 -5 -42 19 -35 54 6 34 4 40 -9 27z m49 -114 c9 -15 -11 -33 -30 -26 -9
4 -13 13 -10 22 7 17 30 20 40 4z"/>
<path d="M1247 1833 c-11 -10 -8 -133 2 -133 5 0 11 32 13 70 3 66 0 79 -15
63z"/>
<path d="M1566 1825 c4 -8 8 -15 10 -15 2 0 4 7 4 15 0 8 -4 15 -10 15 -5 0
-7 -7 -4 -15z"/>
<path d="M688 1803 c-9 -38 5 -130 21 -146 10 -9 17 -6 34 13 12 14 39 34 60
45 20 11 37 23 37 27 0 16 -28 7 -68 -22 -23 -16 -46 -30 -51 -30 -9 0 -17 38
-24 115 l-2 30 -7 -32z"/>
<path d="M1021 1821 c-10 -7 -12 -25 -6 -81 8 -76 21 -93 56 -72 10 7 27 12
37 12 29 0 59 37 46 58 -9 13 -5 19 20 33 35 18 45 43 21 52 -19 8 -65 -9 -65
-23 0 -13 17 -13 25 0 3 6 13 10 21 10 8 0 14 -4 14 -10 0 -5 -6 -10 -13 -10
-7 0 -23 -9 -35 -20 -12 -11 -28 -17 -37 -14 -11 4 -19 -4 -30 -30 -8 -20 -20
-36 -25 -36 -12 0 -23 62 -18 105 2 19 4 35 3 35 0 0 -6 -4 -14 -9z m79 -106
c-7 -9 -15 -13 -18 -10 -3 2 1 11 8 20 7 9 15 13 18 10 3 -2 -1 -11 -8 -20z
m40 0 c-7 -8 -16 -15 -21 -15 -5 0 -6 7 -3 15 4 8 13 15 21 15 13 0 13 -3 3
-15z"/>
<path d="M2416 1804 c-11 -13 -38 -41 -58 -61 -38 -36 -38 -36 -38 -120 0 -54
4 -82 10 -78 6 3 10 39 10 79 0 80 10 98 63 111 23 6 28 12 23 30 -8 30 15 48
48 39 19 -4 26 -2 26 8 0 26 -59 20 -84 -8z"/>
<path d="M1090 1809 c0 -5 5 -7 10 -4 6 3 10 8 10 11 0 2 -4 4 -10 4 -5 0 -10
-5 -10 -11z"/>
<path d="M1975 1810 c3 -5 8 -10 11 -10 2 0 4 5 4 10 0 6 -5 10 -11 10 -5 0
-7 -4 -4 -10z"/>
<path d="M2107 1813 c-11 -10 -8 -132 3 -154 22 -39 60 -11 60 45 0 17 -8 29
-27 38 -23 11 -27 19 -25 46 4 32 1 38 -11 25z m49 -114 c7 -12 -15 -31 -28
-23 -4 3 -8 12 -8 20 0 17 26 19 36 3z"/>
<path d="M2686 1804 c-10 -26 -7 -124 4 -124 6 0 10 21 10 48 0 26 3 57 6 70
7 25 -11 31 -20 6z"/>
<path d="M620 1795 c0 -8 9 -15 20 -15 11 0 20 7 20 15 0 8 -9 15 -20 15 -11
0 -20 -7 -20 -15z"/>
<path d="M2557 1798 c-11 -29 2 -49 27 -42 29 9 40 20 31 33 -4 8 -12 6 -23
-5 -15 -16 -17 -15 -22 7 -5 20 -7 21 -13 7z"/>
<path d="M2215 1790 c-3 -5 -1 -10 4 -10 6 0 11 5 11 10 0 6 -2 10 -4 10 -3 0
-8 -4 -11 -10z"/>
<path d="M361 1763 c-7 -8 -11 -16 -8 -19 2 -2 10 2 17 11 17 20 9 27 -9 8z"/>
<path d="M1923 1765 c-3 -9 -3 -18 -1 -21 3 -3 8 4 11 16 6 23 -1 27 -10 5z"/>
<path d="M2638 1770 c-4 -8 -9 -30 -10 -49 -3 -37 -28 -57 -28 -22 0 11 -4 23
-10 26 -6 4 -10 -5 -10 -19 0 -19 -5 -26 -20 -26 -11 0 -20 6 -20 14 0 8 -15
-1 -35 -20 -19 -18 -35 -35 -35 -38 0 -8 34 6 42 18 4 6 13 5 23 -4 15 -12 19
-12 32 5 11 14 17 16 20 8 8 -21 31 -15 48 11 11 16 15 40 13 68 -2 25 -6 37
-10 28z"/>
<path d="M1504 1743 c-8 -33 -32 -63 -51 -63 -7 0 -13 -4 -13 -10 0 -16 26
-12 48 8 24 20 45 79 32 87 -5 3 -12 -7 -16 -22z"/>
<path d="M1560 1746 c0 -13 6 -27 13 -30 8 -3 2 -14 -18 -30 -23 -20 -26 -26
-12 -26 26 0 55 34 52 61 -1 13 -3 30 -4 37 -2 23 -31 13 -31 -12z"/>
<path d="M2457 1763 c-10 -10 -8 -61 2 -68 14 -8 25 15 13 27 -8 8 -8 17 -1
30 9 17 0 25 -14 11z"/>
<path d="M396 1748 c-28 -16 -66 -59 -66 -73 0 -17 56 -25 132 -19 78 6 108
12 108 22 0 4 -45 6 -101 4 -58 -3 -105 0 -110 5 -12 12 55 55 78 51 9 -2 18
3 20 10 6 15 -35 16 -61 0z"/>
<path d="M500 1749 c0 -5 5 -7 10 -4 6 3 10 8 10 11 0 2 -4 4 -10 4 -5 0 -10
-5 -10 -11z"/>
<path d="M637 1723 c-5 -30 -13 -42 -34 -50 l-28 -12 34 2 c30 2 36 6 43 35 5
18 5 39 0 48 -7 12 -11 7 -15 -23z"/>
<path d="M865 1729 c-4 -19 -19 -38 -38 -50 l-32 -20 29 3 c30 3 64 44 65 81
1 29 -17 19 -24 -14z"/>
<path d="M1730 1738 c-42 -27 -59 -47 -60 -70 0 -16 11 -18 98 -18 96 0 142 6
142 19 0 3 -45 7 -101 7 -55 1 -105 6 -110 11 -11 11 58 46 81 41 8 -2 16 5
18 15 5 24 -25 22 -68 -5z"/>
<path d="M290 1699 c0 -5 5 -7 10 -4 6 3 10 8 10 11 0 2 -4 4 -10 4 -5 0 -10
-5 -10 -11z"/>
<path d="M1640 1695 c0 -8 2 -15 4 -15 2 0 6 7 10 15 3 8 1 15 -4 15 -6 0 -10
-7 -10 -15z"/>
<path d="M1165 1650 c-3 -5 -17 -7 -31 -4 -18 5 -24 2 -24 -9 0 -20 16 -31 25
-17 3 5 17 7 31 4 18 -5 24 -2 24 9 0 20 -16 31 -25 17z"/>
<path d="M670 1629 c0 -5 5 -7 10 -4 6 3 10 8 10 11 0 2 -4 4 -10 4 -5 0 -10
-5 -10 -11z"/>
<path d="M1304 1628 c-10 -16 6 -26 38 -22 18 1 37 3 41 3 5 1 7 6 5 13 -5 14
-76 19 -84 6z"/>
<path d="M1630 1633 c0 -6 4 -14 9 -17 14 -9 42 5 35 16 -4 6 -10 5 -15 -3 -8
-12 -11 -11 -19 1 -6 9 -10 10 -10 3z"/>
<path d="M1876 1631 c-19 -7 -18 -8 4 -14 13 -3 26 -4 29 -2 2 3 -1 5 -8 5 -7
0 -9 5 -6 10 7 11 7 11 -19 1z"/>
<path d="M395 1611 c-7 -24 4 -51 21 -51 16 0 19 16 4 25 -6 4 -8 15 -5 26 4
10 2 19 -4 19 -5 0 -12 -8 -16 -19z"/>
<path d="M1742 1618 c-15 -15 -16 -55 -1 -64 6 -3 16 -1 22 6 9 10 9 14 0 17
-8 3 -11 14 -7 29 7 27 4 30 -14 12z"/>
<path d="M2056 1622 c-3 -5 1 -9 9 -9 8 0 12 4 9 9 -3 4 -7 8 -9 8 -2 0 -6 -4
-9 -8z"/>
<path d="M1134 1599 c-8 -14 18 -31 30 -19 9 9 0 30 -14 30 -5 0 -12 -5 -16
-11z"/>
<path d="M1297 1579 c7 -7 15 -10 18 -7 3 3 -2 9 -12 12 -14 6 -15 5 -6 -5z"/>
<path d="M1630 1529 c0 -5 5 -7 10 -4 6 3 10 8 10 11 0 2 -4 4 -10 4 -5 0 -10
-5 -10 -11z"/>
<path d="M526 1507 c-90 -33 -82 -51 8 -21 42 14 76 30 76 35 0 13 -18 10 -84
-14z"/>
<path d="M1648 1497 c-21 -17 -52 -44 -69 -58 -18 -14 -30 -31 -28 -37 4 -12
22 0 110 77 37 31 49 51 32 51 -5 0 -25 -15 -45 -33z"/>
<path d="M2391 1514 c0 -11 3 -14 6 -6 3 7 2 16 -1 19 -3 4 -6 -2 -5 -13z"/>
<path d="M2424 1514 c-3 -10 -15 -36 -26 -57 -19 -37 -20 -45 -8 -215 7 -97
13 -185 13 -194 2 -30 21 -20 37 20 12 29 14 78 12 242 -3 189 -12 253 -28
204z m9 -259 l6 -60 -11 55 c-8 43 -12 51 -18 35 -5 -12 -7 7 -5 45 7 131 9
127 28 -75z m-16 -47 c-2 -13 -4 -5 -4 17 -1 22 1 32 4 23 2 -10 2 -28 0 -40z
m14 -89 l-9 -34 -1 46 c-1 25 2 49 7 53 12 12 14 -29 3 -65z"/>
<path d="M2160 1501 c-15 -28 -13 -33 10 -26 27 9 25 -7 -5 -35 -14 -13 -25
-31 -25 -39 0 -11 12 -3 35 21 19 20 35 43 35 52 0 8 5 18 10 21 20 12 10 25
-20 25 -19 0 -33 -7 -40 -19z"/>
<path d="M1938 1461 c-22 -47 -23 -100 -2 -199 17 -83 14 -152 -7 -179 -8 -9
-37 -31 -65 -49 -43 -28 -104 -103 -104 -128 0 -3 28 -6 63 -6 65 0 132 -14
142 -30 3 -5 -27 -26 -66 -46 -56 -28 -88 -37 -145 -41 -68 -5 -77 -4 -112 21
-50 34 -66 65 -66 129 -1 38 6 67 26 105 18 34 23 54 16 58 -15 9 -34 -18 -59
-85 -55 -148 -42 -254 40 -316 41 -31 149 -27 224 10 105 51 207 168 207 240
0 29 -42 55 -89 55 -16 0 -33 5 -36 10 -4 6 -11 8 -16 4 -16 -9 22 -33 53 -34
15 0 36 -10 48 -22 24 -26 24 -29 6 -53 -14 -19 -15 -19 -33 -2 -12 10 -36 17
-61 17 -28 0 -45 5 -52 18 -11 16 -11 16 -6 0 3 -12 0 -18 -10 -18 -9 0 -13 8
-11 23 2 12 2 16 0 10 -3 -7 -9 -13 -14 -13 -6 0 -5 9 1 21 12 22 79 65 95 62
13 -3 69 80 91 137 13 32 16 60 11 123 -8 107 -29 217 -42 217 -5 0 -18 -18
-27 -39z m44 -149 c8 -76 8 -116 2 -122 -12 -12 -13 -7 -14 95 0 39 -5 77 -10
85 -7 10 -8 -1 -5 -35 4 -36 3 -44 -4 -30 -11 23 -14 118 -4 129 15 15 24 -16
35 -122z m-401 -483 c10 -14 15 -30 11 -34 -4 -5 -2 -5 5 -1 6 3 27 -3 45 -14
18 -11 48 -20 66 -20 20 0 31 -4 27 -10 -9 -14 18 -12 34 3 11 10 13 10 7 0
-4 -7 -2 -13 3 -13 19 0 12 -30 -6 -31 -10 0 -27 -2 -38 -5 -120 -26 -187 34
-184 162 2 34 3 40 6 19 3 -16 13 -41 24 -56z m333 -39 c-34 -28 -50 -36 -56
-27 -6 9 -8 8 -8 -3 0 -8 -10 -21 -21 -29 -18 -11 -23 -11 -30 1 -18 27 -8 36
40 40 17 1 31 6 31 10 0 4 6 8 13 8 6 0 23 9 37 20 47 37 42 20 -6 -20z"/>
<path d="M1951 1414 c0 -11 3 -14 6 -6 3 7 2 16 -1 19 -3 4 -6 -2 -5 -13z"/>
<path d="M1560 821 c0 -6 4 -13 10 -16 6 -3 7 1 4 9 -7 18 -14 21 -14 7z"/>
<path d="M1614 765 c11 -8 24 -15 30 -15 5 0 1 7 -10 15 -10 8 -23 14 -29 14
-5 0 -1 -6 9 -14z"/>
<path d="M1604 735 c11 -8 27 -15 35 -15 9 0 3 7 -13 15 -36 19 -47 19 -22 0z"/>
<path d="M1673 743 c9 -2 23 -2 30 0 6 3 -1 5 -18 5 -16 0 -22 -2 -12 -5z"/>
<path d="M1815 750 c-3 -6 1 -7 9 -4 18 7 21 14 7 14 -6 0 -13 -4 -16 -10z"/>
<path d="M2971 1474 l-24 -25 26 -25 c25 -23 27 -23 27 -5 0 11 -6 22 -12 24
-10 4 -10 8 0 15 8 5 12 17 10 25 -2 13 -8 11 -27 -9z"/>
<path d="M890 1429 c-21 -55 -22 -70 -15 -157 4 -53 8 -112 8 -129 1 -45 11
-41 36 13 21 43 22 55 15 190 -4 79 -10 144 -14 144 -4 0 -18 -27 -30 -61z
m18 -234 c-7 -7 -9 1 -5 28 3 20 3 36 -1 33 -4 -2 -6 17 -6 42 3 101 7 103 15
7 6 -69 5 -103 -3 -110z"/>
<path d="M2266 1442 c-27 -45 -28 -51 -22 -132 19 -272 19 -306 2 -332 -25
-39 -53 -42 -71 -9 -20 39 -36 50 -66 44 -28 -5 -42 -27 -64 -99 -17 -57 -6
-74 51 -74 41 0 45 -2 42 -22 -4 -29 -99 -79 -186 -98 -34 -8 -62 -17 -62 -20
0 -9 113 -36 136 -32 35 5 97 66 128 125 16 31 42 68 57 83 l29 28 65 -16 c36
-8 65 -11 65 -6 0 4 11 26 25 49 23 35 24 42 11 54 -8 8 -19 15 -25 15 -6 0
-11 4 -11 9 0 5 -14 14 -31 21 -29 12 -30 16 -25 54 12 89 2 406 -13 406 -3 0
-19 -22 -35 -48z m39 -236 c5 -12 5 -17 -1 -14 -5 4 -7 -14 -5 -40 5 -77 -9
-41 -24 59 -17 112 -19 179 -4 179 5 0 7 5 4 10 -3 6 -3 16 2 23 4 7 10 -34
13 -93 3 -58 10 -114 15 -124z m1 -192 c-3 -8 -2 -13 3 -10 13 8 61 -17 61
-32 0 -7 5 -10 11 -6 16 9 -11 -39 -29 -52 -18 -13 -74 -6 -65 9 4 6 1 7 -7 2
-7 -4 -16 -2 -20 5 -10 16 -2 40 12 40 6 0 7 -8 3 -17 -5 -15 -4 -16 7 -5 10
10 10 17 0 32 -9 15 -9 22 4 35 20 19 28 19 20 -1z m-163 -49 c-2 -26 34 -43
70 -34 15 4 27 3 27 -2 0 -5 -5 -9 -11 -9 -6 0 -20 -11 -31 -25 -11 -14 -24
-23 -29 -20 -5 4 -6 -1 -2 -11 5 -13 2 -15 -18 -9 -13 4 -27 12 -30 17 -4 6
-9 5 -11 -3 -8 -21 -21 -3 -22 30 -1 16 -5 27 -9 24 -5 -3 -6 -16 -3 -29 5
-17 2 -24 -9 -24 -18 0 -18 -1 -4 41 22 64 87 107 82 54z m-63 -240 c-19 -23
-119 -47 -105 -25 3 6 16 10 28 10 12 1 33 7 47 15 33 19 46 19 30 0z"/>
<path d="M611 1454 c0 -11 3 -14 6 -6 3 7 2 16 -1 19 -3 4 -6 -2 -5 -13z"/>
<path d="M1678 1438 c-35 -71 -48 -121 -37 -135 14 -16 43 -17 70 -3 31 17 38
-18 8 -41 -32 -24 -182 -67 -211 -61 -5 1 -8 -4 -8 -12 0 -15 50 -26 123 -26
69 0 119 35 153 106 21 44 25 66 21 101 -6 58 -35 97 -74 101 -25 3 -32 -2
-45 -30z m60 3 c8 -4 13 -11 13 -15 -1 -3 -1 -14 -1 -23 0 -15 2 -16 10 -3 8
12 10 8 12 -15 1 -16 2 -39 3 -50 2 -34 -5 -46 -20 -32 -7 7 -11 15 -9 18 2 3
-14 3 -36 -1 -22 -4 -42 -5 -45 -2 -6 7 5 54 16 67 5 5 9 15 9 22 0 14 20 42
30 42 3 1 11 -3 18 -8z m-8 -210 c0 -5 -7 -12 -16 -15 -14 -5 -15 -4 -4 9 14
17 20 19 20 6z m-40 -31 c0 -5 -7 -6 -17 -3 -11 4 -14 3 -9 -5 5 -9 -6 -12
-41 -11 -27 1 -37 4 -23 6 14 3 29 9 35 14 12 12 55 12 55 -1z"/>
<path d="M2813 1455 c-18 -20 -16 -25 7 -25 28 0 25 -29 -5 -40 -26 -10 -34
-30 -12 -30 30 1 83 69 73 95 -7 19 -47 19 -63 0z"/>
<path d="M579 1455 c-1 -10 -3 -20 -8 -40 -2 -5 -7 1 -11 15 l-8 25 -7 -22
c-8 -26 -25 -31 -25 -8 0 8 -4 15 -10 15 -5 0 -10 -6 -10 -14 0 -8 -3 -21 -6
-30 -5 -13 2 -15 40 -14 40 2 47 6 57 31 9 21 9 31 0 40 -6 6 -12 7 -12 2z"/>
<path d="M2710 1410 c-14 -11 -55 -38 -92 -61 -61 -37 -86 -64 -73 -77 3 -3
15 4 28 15 12 11 47 34 77 52 59 35 100 69 100 83 0 13 -13 9 -40 -12z"/>
<path d="M780 1371 c-19 -42 -22 -59 -16 -110 3 -34 9 -88 12 -121 7 -58 6
-60 -17 -60 -47 0 -68 11 -72 39 l-3 26 -13 -33 c-12 -30 -47 -60 -58 -49 -2
3 0 14 6 25 6 12 11 39 11 61 0 32 -5 44 -24 57 -23 14 -28 14 -63 -2 -21 -10
-62 -42 -93 -72 -60 -57 -86 -63 -106 -23 -12 23 -12 23 -19 2 -12 -40 -81
-62 -123 -40 -22 12 -23 17 -21 108 1 53 -2 96 -7 96 -20 -1 -93 -46 -126 -79
-40 -40 -52 -86 -32 -124 7 -14 10 -30 7 -36 -4 -6 1 -5 10 2 14 12 16 10 14
-15 -2 -27 -37 -49 -37 -23 0 6 5 8 10 5 6 -3 10 -1 10 4 0 17 -20 13 -27 -6
-5 -12 6 -27 35 -53 23 -19 42 -42 42 -50 0 -8 -18 -34 -40 -58 -45 -47 -49
-58 -20 -58 18 0 24 8 22 27 -1 3 6 6 14 6 21 0 18 -9 -21 -54 -19 -23 -35
-49 -35 -58 0 -11 8 -6 27 17 15 18 31 36 36 39 14 10 46 105 53 158 8 63 -6
101 -53 137 -28 21 -32 28 -22 40 18 22 61 50 88 59 24 7 24 7 17 -50 -8 -68
7 -131 35 -146 26 -13 87 -3 111 18 13 12 21 13 31 4 9 -7 60 -10 145 -9 111
1 135 4 151 19 16 16 21 16 37 4 11 -8 35 -15 55 -15 44 0 70 25 99 100 19 49
21 70 18 197 -2 94 -7 143 -14 143 -6 0 -21 -22 -34 -49z m21 -90 c-9 -6 -9
-15 -1 -35 5 -15 9 -48 9 -74 l-2 -47 -7 40 c-19 97 -22 135 -15 162 l8 28 10
-33 c8 -25 7 -36 -2 -41z m-649 -71 c-2 -16 -9 -30 -14 -30 -5 0 -7 10 -4 23
4 15 2 13 -6 -5 -13 -30 -24 -34 -48 -18 -13 9 -13 11 0 19 8 5 18 7 24 4 5
-3 6 -1 2 5 -3 6 2 15 11 21 31 18 40 13 35 -19z m457 -79 c-2 -23 -2 -24 -6
-3 -3 12 -12 22 -21 22 -15 0 -15 -2 -2 -11 11 -7 4 -8 -25 -3 -47 8 -49 9
-40 24 6 9 10 9 16 -1 7 -11 9 -10 9 3 0 9 8 22 18 27 22 14 53 -20 51 -58z
m-539 38 c0 -5 6 -7 13 -4 6 4 1 -3 -13 -15 -14 -11 -33 -30 -42 -42 -10 -11
-18 -15 -18 -9 0 6 9 20 20 31 11 11 20 22 20 25 0 3 0 10 0 15 0 6 5 10 10
10 6 0 10 -5 10 -11z m520 -71 c0 -4 -8 -8 -17 -9 -10 0 -42 -4 -71 -8 -63 -9
-73 0 -31 26 26 17 37 18 75 10 24 -6 44 -14 44 -19z m100 -26 c0 -4 -4 -12
-9 -17 -7 -6 1 -10 19 -10 15 0 26 3 23 8 -2 4 10 7 27 7 19 0 29 -4 25 -10
-4 -6 -11 -8 -16 -5 -5 3 -6 0 -3 -8 3 -8 -1 -19 -9 -25 -18 -15 -73 -9 -69 7
2 10 -5 11 -25 6 -15 -3 -32 -7 -38 -8 -5 -1 -15 -8 -21 -16 -8 -10 -20 -11
-55 -4 -31 7 -50 6 -62 -1 -12 -8 -22 -7 -37 2 -12 7 -20 8 -20 2 0 -13 -56
-13 -81 1 -19 10 -19 12 -4 23 14 10 11 12 -19 11 -20 -1 -36 2 -36 6 0 16 49
22 183 23 103 1 134 -2 122 -10 -8 -6 -15 -15 -15 -19 0 -4 7 -1 17 6 13 11
17 11 20 2 5 -15 43 1 56 23 9 15 27 19 27 6z m-497 -16 c18 -14 18 -14 0 -19
-10 -3 -1 -3 19 0 21 3 46 2 55 -3 10 -4 21 -8 25 -8 15 -2 20 -16 5 -16 -10
0 -17 -4 -17 -8 0 -4 -16 -14 -36 -21 -31 -11 -38 -11 -55 5 -11 10 -19 27
-17 38 1 12 -1 27 -5 34 -11 16 3 15 26 -2z m-112 -53 c5 -14 8 -32 5 -39 -3
-7 0 -15 7 -17 7 -2 8 -8 4 -13 -10 -11 -28 17 -22 34 2 6 -3 12 -11 12 -9 0
-12 -5 -8 -12 5 -10 4 -10 -6 -1 -11 10 -11 15 -1 27 7 8 10 20 6 26 -3 5 -1
10 5 10 6 0 15 -12 21 -27z"/>
<path d="M791 1304 c0 -11 3 -14 6 -6 3 7 2 16 -1 19 -3 4 -6 -2 -5 -13z"/>
<path d="M560 1170 c0 -5 5 -10 10 -10 6 0 10 5 10 10 0 6 -4 10 -10 10 -5 0
-10 -4 -10 -10z"/>
<path d="M520 1040 c0 -5 -10 -11 -22 -11 -17 -1 -18 -3 -6 -6 10 -2 28 3 40
11 18 13 19 16 5 16 -9 0 -17 -4 -17 -10z"/>
<path d="M697 1029 c7 -7 15 -10 18 -7 3 3 -2 9 -12 12 -14 6 -15 5 -6 -5z"/>
<path d="M1846 1404 c-9 -24 5 -254 15 -254 17 0 22 53 15 154 -7 100 -17 134
-30 100z"/>
<path d="M1281 1368 c-17 -23 -30 -47 -28 -53 4 -12 76 -55 93 -55 6 0 25 22
42 50 l31 50 -47 22 c-26 12 -50 24 -53 25 -4 2 -21 -15 -38 -39z m49 -10 c0
16 12 15 36 -4 17 -14 17 -15 1 -10 -11 3 -16 2 -12 -4 9 -14 -4 -50 -18 -50
-7 0 -23 9 -37 19 -24 19 -24 20 -5 40 14 16 20 18 27 9 6 -10 8 -10 8 0z"/>
<path d="M1301 1335 c-1 -13 19 -35 31 -35 4 0 8 5 8 10 0 6 -6 10 -14 10 -8
0 -17 6 -19 13 -3 6 -6 7 -6 2z"/>
<path d="M601 1347 c-37 -56 -37 -57 31 -93 26 -13 27 -13 57 36 35 56 36 60
19 60 -6 0 -25 11 -42 24 l-32 24 -33 -51z m83 -19 c-4 -6 -11 -5 -17 1 -6 6
-15 11 -21 11 -5 0 -2 -6 8 -13 15 -11 17 -17 7 -35 -11 -21 -13 -21 -36 -6
-29 19 -32 34 -8 34 9 0 14 3 10 6 -3 3 0 12 6 19 14 14 60 -1 51 -17z"/>
<path d="M1104 1382 c-11 -9 -35 -28 -52 -42 -18 -14 -32 -31 -32 -37 0 -17
17 -17 27 0 4 7 24 25 45 41 34 25 56 56 40 56 -4 -1 -16 -8 -28 -18z"/>
<path d="M980 1359 c0 -5 5 -7 10 -4 6 3 10 8 10 11 0 2 -4 4 -10 4 -5 0 -10
-5 -10 -11z"/>
<path d="M2923 1346 c-35 -7 -65 -14 -67 -17 -6 -7 -36 -102 -33 -105 2 -2 18
-4 35 -6 38 -3 72 -32 48 -41 -7 -3 -41 -4 -75 -3 -68 3 -98 21 -103 65 l-4
26 -13 -27 c-13 -25 -15 -26 -35 -13 -96 68 -206 -82 -193 -264 11 -165 32
-361 38 -361 3 0 12 27 19 61 9 44 11 93 5 182 -5 67 -9 158 -9 202 l-1 80 34
3 c60 6 96 -19 114 -78 3 -10 8 -6 16 13 10 27 11 27 40 12 42 -21 88 -19 149
10 36 17 62 23 82 18 19 -3 30 -1 30 6 0 6 -6 11 -12 11 -9 0 -8 4 2 11 29 20
-53 2 -97 -21 -64 -33 -118 -37 -153 -11 -24 17 -31 18 -37 7 -6 -11 -14 -8
-34 15 -14 16 -25 30 -23 32 2 2 -10 2 -26 -1 -17 -2 -38 2 -47 9 -12 10 -14
10 -9 2 4 -8 1 -13 -9 -13 -12 0 -14 4 -5 19 14 27 70 54 85 41 6 -5 15 -7 18
-3 4 3 7 2 7 -4 0 -6 12 -8 26 -5 20 3 26 0 31 -17 4 -16 11 -20 24 -16 11 4
19 2 19 -3 0 -6 -5 -12 -10 -14 -6 -1 21 -3 58 -2 38 1 74 4 80 8 6 3 13 2 16
-3 4 -5 0 -12 -6 -14 -8 -3 -5 -6 6 -6 12 -1 16 4 13 13 -8 20 4 28 20 15 7
-6 13 -9 13 -6 0 13 -43 77 -52 77 -5 0 -7 4 -4 9 3 5 -2 8 -12 7 -21 -1 -27
33 -10 57 10 13 28 18 71 19 48 1 57 4 57 20 0 10 -3 18 -7 17 -5 -1 -36 -6
-70 -13z m-410 -369 c2 -32 0 -52 -4 -45 -5 7 -8 38 -8 68 1 66 6 56 12 -23z
m17 -171 c0 -78 -7 -68 -14 19 -4 47 -2 65 4 55 5 -8 10 -42 10 -74z"/>
<path d="M526 1322 c-3 -5 1 -9 9 -9 8 0 12 4 9 9 -3 4 -7 8 -9 8 -2 0 -6 -4
-9 -8z"/>
<path d="M1137 1302 c-19 -20 -13 -34 9 -25 27 10 14 -15 -23 -43 -43 -33 -28
-46 17 -14 29 21 60 67 60 90 0 17 -46 11 -63 -8z"/>
<path d="M119 1293 c-13 -16 -12 -17 4 -4 9 7 17 15 17 17 0 8 -8 3 -21 -13z"/>
<path d="M180 1306 c0 -2 7 -7 16 -10 8 -3 12 -2 9 4 -6 10 -25 14 -25 6z"/>
<path d="M297 1283 c-24 -27 -22 -31 19 -31 19 0 38 -3 42 -7 8 -8 -47 -55
-64 -55 -6 0 -19 -9 -29 -20 -29 -32 2 -25 60 13 55 36 86 80 69 97 -6 6 -26
13 -45 16 -26 4 -38 1 -52 -13z"/>
<path d="M2620 1290 c-9 -6 -10 -10 -3 -10 6 0 15 5 18 10 8 12 4 12 -15 0z"/>
<path d="M2876 1285 c-9 -26 -7 -32 5 -12 6 10 9 21 6 23 -2 3 -7 -2 -11 -11z"/>
<path d="M230 1271 c0 -6 4 -13 10 -16 6 -3 7 1 4 9 -7 18 -14 21 -14 7z"/>
<path d="M1401 1238 c-23 -52 -21 -88 10 -150 11 -21 19 -42 19 -48 0 -6 -24
-10 -56 -10 -49 0 -55 2 -49 18 4 9 9 41 12 71 5 45 3 56 -12 67 -23 17 -78
17 -124 1 -28 -10 -36 -20 -47 -57 -18 -60 -19 -58 21 -66 19 -3 35 -10 35
-15 0 -12 -85 -22 -125 -15 -29 6 -36 12 -45 44 -5 20 -10 43 -10 50 0 21 -18
13 -22 -10 -3 -21 -8 -23 -53 -20 -62 4 -81 -14 -114 -106 -19 -54 -22 -81
-21 -185 1 -67 2 -131 2 -142 0 -11 5 -48 10 -82 23 -146 41 -24 36 235 -3
116 -1 172 6 173 57 6 101 -14 117 -54 11 -26 14 -27 24 -14 8 12 15 13 22 6
13 -13 100 -7 162 11 38 12 45 11 53 -3 12 -23 108 -23 154 -1 45 21 79 106
70 177 -3 26 -9 53 -13 60 -4 6 -15 34 -24 62 l-16 50 -22 -47z m21 -63 c-2
-13 1 -31 7 -42 10 -15 11 -12 5 17 -8 45 1 37 14 -13 6 -21 6 -35 1 -32 -5 4
-9 1 -9 -4 0 -6 5 -11 10 -11 6 0 10 -6 10 -12 -1 -22 -39 32 -49 68 -10 36
-3 84 9 64 4 -6 5 -22 2 -35z m-114 -7 c17 -17 15 -54 -3 -71 -11 -12 -12 -17
-2 -21 9 -4 8 -8 -4 -17 -14 -11 -14 -14 3 -31 16 -16 31 -19 79 -16 32 1 59
0 59 -4 0 -5 -4 -8 -10 -8 -5 0 -10 -6 -10 -14 0 -26 -42 -46 -97 -46 -53 0
-73 15 -30 22 12 2 -12 5 -53 7 -94 4 -122 3 -129 -5 -3 -4 6 -4 22 -2 15 3
30 1 33 -3 3 -5 -5 -9 -18 -10 -13 0 -36 -3 -52 -5 -16 -3 -38 2 -52 11 -28
18 -37 19 -28 3 3 -7 -4 -1 -17 14 -13 15 -40 31 -59 37 -28 7 -30 9 -11 10
30 1 21 12 -13 15 -17 2 -26 -2 -26 -10 0 -8 -4 -14 -10 -14 -14 0 -12 12 6
38 9 14 22 21 31 18 8 -3 11 -1 8 4 -4 6 12 9 42 7 37 -1 49 -6 53 -21 3 -11
14 -24 25 -30 11 -6 22 -14 25 -17 9 -12 134 11 150 27 13 14 13 17 -2 28 -10
7 -14 16 -10 21 4 4 -4 5 -18 1 -14 -3 -19 -3 -12 0 6 3 12 10 12 15 0 6 -5 7
-11 3 -13 -8 -3 33 13 53 17 22 98 29 116 11z m-461 -420 c-3 -8 -6 -5 -6 6
-1 11 2 17 5 13 3 -3 4 -12 1 -19z m0 -85 c-3 -10 -5 -2 -5 17 0 19 2 27 5 18
2 -10 2 -26 0 -35z"/>
<path d="M1200 1149 c0 -5 5 -7 10 -4 6 3 10 8 10 11 0 2 -4 4 -10 4 -5 0 -10
-5 -10 -11z"/>
<path d="M1168 993 c7 -3 16 -2 19 1 4 3 -2 6 -13 5 -11 0 -14 -3 -6 -6z"/>
<path d="M1325 990 c3 -5 13 -10 21 -10 8 0 14 5 14 10 0 6 -9 10 -21 10 -11
0 -17 -4 -14 -10z"/>
<path d="M1078 963 c7 -3 16 -2 19 1 4 3 -2 6 -13 5 -11 0 -14 -3 -6 -6z"/>
<path d="M1334 958 c10 -6 22 -6 26 -2 5 5 -3 10 -18 11 -22 1 -24 0 -8 -9z"/>
<path d="M978 1263 c7 -3 16 -2 19 1 4 3 -2 6 -13 5 -11 0 -14 -3 -6 -6z"/>
<path d="M1093 1255 c0 -7 6 -11 14 -8 7 3 13 6 13 8 0 2 -6 5 -13 8 -8 3 -14
-1 -14 -8z"/>
<path d="M6 1237 c3 -10 9 -15 12 -12 3 3 0 11 -7 18 -10 9 -11 8 -5 -6z"/>
<path d="M1497 1243 c-4 -3 -7 -11 -7 -17 0 -6 5 -5 12 2 6 6 9 14 7 17 -3 3
-9 2 -12 -2z"/>
<path d="M250 1231 c0 -6 4 -13 10 -16 6 -3 7 1 4 9 -7 18 -14 21 -14 7z"/>
<path d="M2201 1224 c0 -11 3 -14 6 -6 3 7 2 16 -1 19 -3 4 -6 -2 -5 -13z"/>
<path d="M370 1179 c0 -5 5 -7 10 -4 6 3 10 8 10 11 0 2 -4 4 -10 4 -5 0 -10
-5 -10 -11z"/>
<path d="M392 1164 c-7 -8 -8 -14 -3 -14 10 0 25 19 20 25 -2 1 -10 -3 -17
-11z"/>
<path d="M950 1170 c0 -5 5 -10 10 -10 6 0 10 5 10 10 0 6 -4 10 -10 10 -5 0
-10 -4 -10 -10z"/>
<path d="M1105 1160 c3 -5 8 -10 11 -10 2 0 4 5 4 10 0 6 -5 10 -11 10 -5 0
-7 -4 -4 -10z"/>
<path d="M1766 1162 c-3 -5 1 -9 9 -9 8 0 12 4 9 9 -3 4 -7 8 -9 8 -2 0 -6 -4
-9 -8z"/>
<path d="M2353 1130 c0 -25 2 -35 4 -22 2 12 2 32 0 45 -2 12 -4 2 -4 -23z"/>
<path d="M2157 1117 c-26 -23 -47 -48 -47 -54 0 -17 7 -16 29 5 10 9 32 29 50
44 29 24 41 49 24 48 -5 -1 -29 -20 -56 -43z"/>
<path d="M2032 1128 c-17 -17 -15 -38 3 -38 24 0 17 -26 -10 -38 -14 -6 -25
-16 -25 -22 0 -15 10 -12 45 11 28 20 59 81 47 94 -10 9 -48 5 -60 -7z m38
-18 c0 -5 -4 -10 -10 -10 -5 0 -10 5 -10 10 0 6 5 10 10 10 6 0 10 -4 10 -10z"/>
<path d="M1980 1060 c-6 -11 -8 -20 -6 -20 3 0 10 9 16 20 6 11 8 20 6 20 -3
0 -10 -9 -16 -20z"/>
<path d="M2941 1056 c-9 -11 -9 -16 1 -22 7 -4 10 -4 6 1 -4 4 -3 14 3 22 6 7
9 13 6 13 -2 0 -10 -6 -16 -14z"/>
<path d="M1525 1029 c-4 -6 -5 -12 -2 -15 2 -3 7 2 10 11 7 17 1 20 -8 4z"/>
<path d="M2165 1030 c-3 -6 1 -7 9 -4 18 7 21 14 7 14 -6 0 -13 -4 -16 -10z"/>
<path d="M2989 1014 c-2 -5 -31 -27 -64 -47 -56 -34 -98 -77 -75 -77 12 0 125
77 141 96 6 7 9 19 7 26 -3 8 -6 9 -9 2z"/>
<path d="M1850 980 c-9 -6 -10 -10 -3 -10 6 0 15 5 18 10 8 12 4 12 -15 0z"/>
<path d="M1930 960 c0 -5 5 -10 11 -10 5 0 7 5 4 10 -3 6 -8 10 -11 10 -2 0
-4 -4 -4 -10z"/>
<path d="M485 906 c-49 -23 -96 -50 -104 -59 -20 -25 1 -21 67 12 31 15 71 31
87 35 31 8 65 33 65 48 0 15 -24 8 -115 -36z"/>
<path d="M250 920 c8 -5 20 -10 25 -10 6 0 3 5 -5 10 -8 5 -19 10 -25 10 -5 0
-3 -5 5 -10z"/>
<path d="M1458 907 c-7 -7 -40 -30 -73 -51 -63 -40 -75 -52 -75 -74 0 -9 9 -6
28 8 15 12 49 36 76 53 48 32 89 77 68 77 -6 0 -17 -6 -24 -13z"/>
<path d="M152 875 c0 -16 2 -22 5 -12 2 9 2 23 0 30 -3 6 -5 -1 -5 -18z"/>
<path d="M2396 873 c-6 -14 -5 -15 5 -6 7 7 10 15 7 18 -3 3 -9 -2 -12 -12z"/>
<path d="M366 748 l-38 -42 -63 32 -62 33 -37 -37 c-20 -20 -36 -41 -36 -47 0
-7 30 -25 67 -42 l66 -29 32 37 c18 20 36 37 41 37 5 0 32 -11 59 -25 l50 -24
38 40 c20 21 37 43 37 48 0 5 -12 12 -27 16 -15 3 -39 15 -54 26 -15 10 -29
19 -31 19 -3 0 -22 -19 -42 -42z m86 -26 c-5 -15 -4 -15 11 -3 24 19 21 -1 -3
-27 -25 -26 -23 -26 -63 -6 -42 22 -42 21 -25 38 29 28 91 27 80 -2z m-197 -7
c28 -13 44 -24 37 -24 -7 -1 -11 -5 -8 -10 3 -5 -1 -14 -9 -21 -18 -15 -56 -4
-48 16 3 7 1 14 -5 14 -6 0 -19 3 -29 6 -16 5 -16 4 2 -12 18 -15 18 -16 2
-10 -10 3 -23 6 -28 6 -6 0 -2 14 8 30 9 17 20 30 23 30 3 -1 28 -12 55 -25z"/>
<path d="M425 690 c-3 -5 -2 -10 4 -10 5 0 13 5 16 10 3 6 2 10 -4 10 -5 0
-13 -4 -16 -10z"/>
<path d="M200 721 c0 -9 30 -24 36 -18 2 1 -6 8 -16 15 -11 7 -20 8 -20 3z"/>
<path d="M240 670 c0 -5 5 -10 11 -10 5 0 7 5 4 10 -3 6 -8 10 -11 10 -2 0 -4
-4 -4 -10z"/>
<path d="M2035 780 c-3 -5 -2 -10 4 -10 5 0 13 5 16 10 3 6 2 10 -4 10 -5 0
-13 -4 -16 -10z"/>
<path d="M1355 770 c-3 -6 1 -7 9 -4 18 7 21 14 7 14 -6 0 -13 -4 -16 -10z"/>
<path d="M2576 737 c3 -10 9 -15 12 -12 3 3 0 11 -7 18 -10 9 -11 8 -5 -6z"/>
<path d="M550 735 c0 -5 5 -17 10 -25 5 -8 10 -10 10 -5 0 6 -5 17 -10 25 -5
8 -10 11 -10 5z"/>
<path d="M1510 701 c0 -5 7 -12 16 -15 14 -5 15 -4 4 9 -14 17 -20 19 -20 6z"/>
<path d="M1910 635 c7 -8 17 -15 22 -15 5 0 3 7 -6 15 -8 8 -18 15 -22 15 -3
0 -1 -7 6 -15z"/>
<path d="M350 630 c-9 -6 -10 -10 -3 -10 6 0 15 5 18 10 8 12 4 12 -15 0z"/>
<path d="M801 534 c0 -11 3 -14 6 -6 3 7 2 16 -1 19 -3 4 -6 -2 -5 -13z"/>
<path d="M468 436 c-16 -12 -28 -28 -28 -36 0 -9 12 -2 32 17 38 38 35 51 -4
19z"/>
<path d="M1240 447 c-40 -18 -52 -35 -57 -78 -4 -28 -10 -39 -19 -35 -8 3 -14
-1 -14 -10 0 -8 -5 -12 -11 -9 -5 4 -19 -1 -30 -11 -26 -23 -31 -15 -30 50 0
31 -4 56 -9 56 -11 0 -14 -109 -4 -134 9 -22 30 -20 48 5 8 13 25 22 41 22 30
0 45 22 45 66 0 25 8 36 40 56 38 24 49 36 33 34 -5 0 -19 -6 -33 -12z"/>
<path d="M1336 447 c3 -10 9 -15 12 -12 3 3 0 11 -7 18 -10 9 -11 8 -5 -6z"/>
<path d="M416 438 c3 -4 11 -5 19 -1 21 7 19 12 -4 10 -11 0 -18 -5 -15 -9z"/>
<path d="M1885 440 c-3 -6 1 -7 9 -4 18 7 21 14 7 14 -6 0 -13 -4 -16 -10z"/>
<path d="M2607 439 c7 -7 15 -10 18 -7 3 3 -2 9 -12 12 -14 6 -15 5 -6 -5z"/>
<path d="M2649 427 c-28 -19 -35 -30 -37 -65 -2 -23 -8 -42 -13 -42 -6 0 -17
-7 -25 -15 -26 -26 -34 -17 -34 40 0 30 -4 55 -10 55 -16 0 -12 -104 5 -126
15 -19 15 -19 34 4 11 12 26 22 34 22 18 0 27 21 27 66 0 19 3 34 8 34 12 0
68 49 56 50 -6 0 -26 -10 -45 -23z"/>
<path d="M472 408 c-39 -31 -51 -48 -34 -48 13 1 87 69 81 75 -4 3 -25 -9 -47
-27z"/>
<path d="M1910 425 c-11 -13 -10 -14 4 -9 9 3 16 10 16 15 0 13 -6 11 -20 -6z"/>
<path d="M1926 399 c-23 -22 -34 -39 -25 -39 19 0 81 59 74 71 -4 5 -7 8 -8 8
-1 -1 -20 -19 -41 -40z"/>
<path d="M2002 420 c0 -14 2 -19 5 -12 2 6 2 18 0 25 -3 6 -5 1 -5 -13z"/>
<path d="M994 398 c-20 -25 -46 -42 -81 -58 -12 -5 -33 -27 -47 -48 -13 -21
-34 -45 -47 -55 -19 -12 -20 -16 -7 -16 14 -1 88 73 88 88 0 4 14 12 31 20 27
12 33 12 40 0 7 -11 9 -9 9 7 0 11 11 31 25 44 14 13 25 27 25 32 0 15 -16 8
-36 -14z"/>
<path d="M1110 407 c0 -8 12 -14 30 -14 18 0 30 6 30 14 0 8 -12 13 -30 13
-18 0 -30 -5 -30 -13z"/>
<path d="M408 395 c-5 -16 -5 -91 1 -116 0 -4 8 -9 16 -13 10 -3 20 5 31 26
15 30 15 32 -2 45 -10 7 -21 13 -25 13 -4 0 -9 15 -11 33 -3 25 -5 28 -10 12z
m40 -86 c-2 -6 -8 -10 -13 -10 -5 0 -11 4 -13 10 -2 6 4 11 13 11 9 0 15 -5
13 -11z"/>
<path d="M810 395 c-7 -8 -18 -15 -25 -15 -7 0 -12 -14 -13 -31 -1 -38 -24
-75 -51 -82 -29 -7 -44 16 -36 55 6 31 5 32 -10 14 -30 -38 -11 -96 31 -96 34
0 71 40 79 84 4 20 11 36 16 36 10 0 33 40 26 46 -2 3 -10 -2 -17 -11z"/>
<path d="M1348 404 c-5 -4 -8 -32 -8 -63 0 -39 3 -52 11 -44 5 5 9 34 7 62 -2
29 -6 49 -10 45z"/>
<path d="M2302 387 c-12 -13 -19 -26 -16 -30 7 -7 54 33 54 46 0 14 -17 7 -38
-16z"/>
<path d="M2910 349 c0 -37 4 -58 10 -54 6 3 10 31 10 61 0 30 -4 54 -10 54 -6
0 -10 -27 -10 -61z"/>
<path d="M1678 394 c-13 -12 -9 -99 5 -118 14 -19 47 -13 47 9 0 7 13 16 29
20 16 3 32 13 35 21 3 8 3 14 1 14 -10 0 -61 -26 -73 -37 -24 -23 -31 -14 -34
43 -2 31 -6 52 -10 48z"/>
<path d="M1868 390 c-2 -6 -1 -36 2 -68 4 -44 9 -58 22 -60 12 -2 21 6 28 23
15 38 13 44 -16 55 -19 8 -25 16 -21 30 5 20 -8 39 -15 20z m42 -85 c0 -8 -7
-15 -15 -15 -16 0 -20 12 -8 23 11 12 23 8 23 -8z"/>
<path d="M2437 382 c-22 -25 -21 -45 3 -67 16 -14 20 -15 20 -4 0 8 -5 20 -11
26 -18 18 -4 42 20 36 15 -4 21 -1 21 11 0 22 -33 20 -53 -2z"/>
<path d="M1627 383 c-12 -11 -8 -23 8 -23 8 0 15 7 15 15 0 16 -12 20 -23 8z"/>
<path d="M2103 376 c-15 -7 -23 -20 -23 -36 0 -30 -23 -65 -51 -81 -29 -15
-52 6 -45 43 7 37 -11 36 -19 -1 -9 -41 9 -71 43 -71 38 0 70 32 78 77 4 21
16 45 28 54 26 21 19 29 -11 15z"/>
<path d="M863 368 c5 -15 46 -13 61 2 7 7 -3 10 -28 10 -26 0 -36 -4 -33 -12z"/>
<path d="M1400 376 c0 -2 7 -7 16 -10 8 -3 12 -2 9 4 -6 10 -25 14 -25 6z"/>
<path d="M1095 360 c-4 -6 -3 -16 3 -22 6 -6 12 -6 17 2 4 6 3 16 -3 22 -6 6
-12 6 -17 -2z"/>
<path d="M2164 359 c-2 -4 -1 -10 3 -12 14 -8 57 -1 60 10 4 11 -56 14 -63 2z"/>
<path d="M150 340 c-20 -15 -21 -20 -8 -20 9 0 20 5 23 10 3 6 15 10 26 10 10
0 19 5 19 10 0 16 -33 11 -60 -10z"/>
<path d="M513 332 c4 -21 1 -31 -14 -40 -25 -16 -24 -32 2 -25 24 7 42 47 34
74 -10 30 -28 22 -22 -9z"/>
<path d="M598 329 c-6 -17 -21 -34 -35 -40 -13 -5 -21 -14 -18 -20 5 -7 14 -5
30 5 17 11 25 12 34 3 9 -9 14 -8 21 3 5 8 10 21 10 29 0 11 -3 11 -16 0 -15
-12 -16 -10 -10 19 10 41 -2 42 -16 1z"/>
<path d="M2255 350 c-4 -6 -21 -16 -39 -24 -19 -8 -37 -25 -44 -42 -7 -16 -26
-38 -42 -49 -19 -13 -26 -23 -20 -29 11 -11 66 37 75 65 8 25 76 64 85 49 5
-8 9 -6 14 5 10 28 -14 49 -29 25z"/>
<path d="M2354 323 c-15 -80 31 -119 82 -68 29 29 25 48 -4 22 -10 -10 -29
-17 -41 -17 -21 0 -23 4 -19 50 4 58 -8 67 -18 13z"/>
<path d="M2483 348 c-14 -23 -15 -60 -1 -56 7 3 13 19 14 36 2 35 -1 39 -13
20z"/>
<path d="M341 334 c0 -11 3 -14 6 -6 3 7 2 16 -1 19 -3 4 -6 -2 -5 -13z"/>
<path d="M360 320 c-7 -16 -19 -30 -26 -30 -15 0 -19 -12 -8 -23 12 -12 42 13
53 44 13 38 13 39 2 39 -5 0 -14 -13 -21 -30z"/>
<path d="M1246 318 c-9 -21 -23 -38 -31 -38 -8 0 -15 -4 -15 -10 0 -5 9 -10
21 -10 21 0 54 60 46 83 -3 7 -12 -5 -21 -25z"/>
<path d="M1293 333 c-4 -10 0 -21 9 -27 15 -9 14 -11 -4 -20 -12 -6 -23 -17
-26 -24 -3 -10 2 -10 22 -1 30 14 36 26 29 62 -6 31 -20 35 -30 10z"/>
<path d="M1420 330 c-25 -20 -25 -20 -2 -20 12 0 22 5 22 10 0 6 11 10 25 10
14 0 25 5 25 10 0 17 -44 11 -70 -10z"/>
<path d="M2727 331 c-6 -22 0 -31 20 -31 9 0 13 8 11 22 -4 28 -24 34 -31 9z"/>
<path d="M2866 333 c-4 -9 -2 -21 4 -27 7 -7 2 -17 -17 -33 l-28 -22 30 8 c27
6 30 12 33 49 3 42 -10 57 -22 25z"/>
<path d="M710 325 c0 -8 7 -15 15 -15 8 0 15 7 15 15 0 8 -7 15 -15 15 -8 0
-15 -7 -15 -15z"/>
<path d="M1632 318 c-6 -14 -19 -31 -29 -36 -23 -13 -11 -26 16 -17 21 6 37
44 28 67 -3 8 -9 2 -15 -14z"/>
<path d="M1831 320 c-8 -14 -23 -33 -35 -42 l-21 -18 22 0 c23 0 58 50 50 73
-2 7 -9 1 -16 -13z"/>
<path d="M2657 333 c-4 -3 -7 -21 -7 -40 0 -39 21 -45 37 -10 15 33 -8 72 -30
50z m19 -50 c-10 -10 -19 5 -10 18 6 11 8 11 12 0 2 -7 1 -15 -2 -18z"/>
<path d="M2814 315 c-3 -13 -15 -27 -25 -30 -22 -7 -26 -25 -5 -25 16 0 46 26
46 40 0 5 3 15 6 24 3 9 1 16 -5 16 -6 0 -13 -11 -17 -25z"/>
<path d="M60 321 c0 -6 4 -13 10 -16 6 -3 7 1 4 9 -7 18 -14 21 -14 7z"/>
<path d="M2010 315 c0 -8 7 -15 15 -15 8 0 15 7 15 15 0 8 -7 15 -15 15 -8 0
-15 -7 -15 -15z"/>
<path d="M822 311 c-29 -8 -29 -27 1 -23 26 5 30 8 26 20 -2 4 -14 6 -27 3z"/>
<path d="M987 313 c-12 -11 -8 -23 8 -23 8 0 15 7 15 15 0 16 -12 20 -23 8z"/>
<path d="M104 299 c-3 -6 -2 -15 3 -20 13 -13 185 -7 190 6 2 7 -23 9 -71 7
-42 -2 -82 1 -94 7 -15 8 -23 8 -28 0z"/>
<path d="M935 301 c-7 -12 12 -24 25 -16 11 7 4 25 -10 25 -5 0 -11 -4 -15 -9z"/>
<path d="M1382 284 c3 -17 13 -19 90 -19 56 0 92 5 100 13 9 9 -6 12 -74 12
-48 0 -94 3 -103 6 -13 5 -16 2 -13 -12z"/>
<path d="M2100 284 c0 -16 52 -13 57 3 3 7 -7 11 -26 11 -18 -1 -31 -6 -31
-14z"/>
<path d="M2240 286 c0 -17 14 -29 23 -20 8 8 -3 34 -14 34 -5 0 -9 -6 -9 -14z"/>
<path d="M2286 285 c4 -8 10 -12 15 -9 14 8 10 24 -6 24 -9 0 -12 -6 -9 -15z"/>
<path d="M2710 270 c-11 -11 -20 -26 -19 -32 0 -10 2 -10 6 0 3 7 16 17 29 22
13 5 24 14 24 20 0 16 -18 12 -40 -10z"/>
<path d="M1345 250 c3 -5 8 -10 11 -10 2 0 4 5 4 10 0 6 -5 10 -11 10 -5 0 -7
-4 -4 -10z"/>
<path d="M1630 244 l-25 -15 25 7 c28 7 35 12 29 18 -2 2 -15 -2 -29 -10z"/>
<path d="M1840 250 c0 -5 5 -10 11 -10 5 0 7 5 4 10 -3 6 -8 10 -11 10 -2 0
-4 -4 -4 -10z"/>
<path d="M2465 250 c-3 -5 -1 -10 4 -10 6 0 11 5 11 10 0 6 -2 10 -4 10 -3 0
-8 -4 -11 -10z"/>
<path d="M121 234 c0 -11 3 -14 6 -6 3 7 2 16 -1 19 -3 4 -6 -2 -5 -13z"/>
<path d="M154 235 c-7 -18 2 -45 15 -45 6 0 9 13 8 30 -2 32 -14 40 -23 15z"/>
<path d="M470 246 c0 -2 7 -7 16 -10 8 -3 12 -2 9 4 -6 10 -25 14 -25 6z"/>
<path d="M646 237 c3 -10 9 -15 12 -12 3 3 0 11 -7 18 -10 9 -11 8 -5 -6z"/>
<path d="M1055 240 c3 -5 8 -10 11 -10 2 0 4 5 4 10 0 6 -5 10 -11 10 -5 0 -7
-4 -4 -10z"/>
<path d="M2558 242 c-16 -2 -28 -10 -28 -17 0 -10 9 -13 31 -10 17 2 34 6 37
10 11 10 -13 21 -40 17z"/>
<path d="M2805 240 c-3 -5 -1 -10 4 -10 6 0 11 5 11 10 0 6 -2 10 -4 10 -3 0
-8 -4 -11 -10z"/>
<path d="M1430 215 c0 -16 6 -25 15 -25 18 0 20 16 3 23 -10 4 -9 8 2 16 13 9
13 11 -2 11 -13 0 -18 -8 -18 -25z"/>
<path d="M195 180 c-3 -5 -1 -10 4 -10 6 0 11 5 11 10 0 6 -2 10 -4 10 -3 0
-8 -4 -11 -10z"/>
<path d="M2586 177 c3 -10 9 -15 12 -12 3 3 0 11 -7 18 -10 9 -11 8 -5 -6z"/>
</g>
</svg>
